{
	"asset":{
		"generator":"Khronos glTF Blender I/O v3.5.30",
		"version":"2.0"
	},
	"scene":0,
	"scenes":[
		{
			"name":"Scene",
			"nodes":[
				0,
				1,
				2
			]
		}
	],
	"nodes":[
		{
			"name":"Empty",
			"rotation":[
				0.05292278528213501,
				0.49755796790122986,
				-0.030431950464844704,
				0.8652797937393188
			]
		},
		{
			"mesh":0,
			"name":"Cylinder.003",
			"rotation":[
				0.06104855239391327,
				0,
				0,
				0.9981349110603333
			]
		},
		{
			"mesh":1,
			"name":"Cylinder.001",
			"rotation":[
				0.06104855239391327,
				0,
				0,
				0.9981349110603333
			]
		}
	],
	"materials":[
		{
			"doubleSided":true,
			"name":"Material",
			"pbrMetallicRoughness":{
				"baseColorFactor":[
					0,
					0.6484607458114624,
					0.8000000715255737,
					1
				],
				"roughnessFactor":0.20000000298023224
			}
		}
	],
	"meshes":[
		{
			"name":"Cylinder.003",
			"primitives":[
				{
					"attributes":{
						"POSITION":0,
						"TEXCOORD_0":1,
						"NORMAL":2
					},
					"indices":3,
					"material":0
				}
			]
		},
		{
			"name":"Cylinder.002",
			"primitives":[
				{
					"attributes":{
						"POSITION":4,
						"TEXCOORD_0":5,
						"NORMAL":6
					},
					"indices":7,
					"material":0
				}
			]
		}
	],
	"accessors":[
		{
			"bufferView":0,
			"componentType":5126,
			"count":2472,
			"max":[
				5.501564025878906,
				1.1144155263900757,
				4.950000286102295
			],
			"min":[
				-5.501564025878906,
				-1.0914292335510254,
				-5.00227689743042
			],
			"type":"VEC3"
		},
		{
			"bufferView":1,
			"componentType":5126,
			"count":2472,
			"type":"VEC2"
		},
		{
			"bufferView":2,
			"componentType":5126,
			"count":2472,
			"type":"VEC3"
		},
		{
			"bufferView":3,
			"componentType":5123,
			"count":6552,
			"type":"SCALAR"
		},
		{
			"bufferView":4,
			"componentType":5126,
			"count":1308,
			"max":[
				3.006730794906616,
				1.1144087314605713,
				3.349818229675293
			],
			"min":[
				-2.9891133308410645,
				-0.7376661896705627,
				-3.4742681980133057
			],
			"type":"VEC3"
		},
		{
			"bufferView":5,
			"componentType":5126,
			"count":1308,
			"type":"VEC2"
		},
		{
			"bufferView":6,
			"componentType":5126,
			"count":1308,
			"type":"VEC3"
		},
		{
			"bufferView":7,
			"componentType":5123,
			"count":4032,
			"type":"SCALAR"
		}
	],
	"bufferViews":[
		{
			"buffer":0,
			"byteLength":29664,
			"byteOffset":0,
			"target":34962
		},
		{
			"buffer":0,
			"byteLength":19776,
			"byteOffset":29664,
			"target":34962
		},
		{
			"buffer":0,
			"byteLength":29664,
			"byteOffset":49440,
			"target":34962
		},
		{
			"buffer":0,
			"byteLength":13104,
			"byteOffset":79104,
			"target":34963
		},
		{
			"buffer":0,
			"byteLength":15696,
			"byteOffset":92208,
			"target":34962
		},
		{
			"buffer":0,
			"byteLength":10464,
			"byteOffset":107904,
			"target":34962
		},
		{
			"buffer":0,
			"byteLength":15696,
			"byteOffset":118368,
			"target":34962
		},
		{
			"buffer":0,
			"byteLength":8064,
			"byteOffset":134064,
			"target":34963
		}
	],
	"buffers":[
		{
			"byteLength":142128,
			"uri":"data:application/octet-stream;base64,"
		}
	]
}
